<?xml version="1.0" encoding="UTF-8"?>
<svg id="_レイヤー_1" data-name="レイヤー_1" xmlns="http://www.w3.org/2000/svg" version="1.1" viewBox="0 0 128 128">
  <!-- Generator: Adobe Illustrator 29.1.0, SVG Export Plug-In . SVG Version: 2.1.0 Build 142)  -->
  <defs>
    <style>
      .st0 {
        fill: #f4e4a9;
      }

      .st1 {
        fill: #f24452;
      }

      .st2 {
        fill: #f22358;
      }
    </style>
  </defs>
  <path class="st2" d="M92.5,40.32c-11.99-.77-22.97,4.71-29.86,13.7,11.13,7.18,18.15,20.01,17.23,34.17-.46,7.07-2.83,13.55-6.58,18.98,4.36,2.45,9.31,3.98,14.62,4.33,19.28,1.24,35.94-13.68,37.2-33.34,1.27-19.65-13.34-36.59-32.62-37.84Z"/>
  <circle class="st0" cx="40.72" cy="90.25" r="37.75"/>
  <path class="st2" d="M63.83,60.8c4.54,6.68,3.2,14.35-.52,21.89-2.09,4.24-2.98,11.38-7.47,13.58-.86.42-.29,1.51-.64,2.4-.6,1.51-2.51,2.37-4.31,3.28-1.68.84-7.05-.51-7.67,1.44-1.04,3.24-3.77-.48-5.31.64-6.03,4.4-10.35-5.43-18.82-4.32-4.5.59-16.07-4.21-14.77-16.38,0,0-2.19,1.44-1.27,10.85s7.75,23.79,20.66,29.51c12.91,5.72,29.33,7.93,45.74-9.04,16.42-16.97,5.17-41.29,4.49-42.61-3.12-6.03-11.48-13.3-10.09-11.24Z"/>
  <path class="st1" d="M57.91,97.96c-2.08,7.03-15.11,9.72-16.06,13.26-2.24,8.31-6.68,10.31-8.99,5.75-1.73-3.4-2.84-12.5-12.82-7.03-8.16,4.47-12.23-15.1-12.23-15.1,0,0,2.72,2.72,13.78,4.15,5.01.65,8.16,5.31,13.14,5.35,4.31.04,6.68-2.55,11.03-2.24,8.79.64,8.51-5.39,11.03-9.35,3.22-5.07,8.15-12.86,8.15-12.86,0,0-5.33,12.32-7.03,18.06Z"/>
  <path class="st2" d="M94.94,40.94c-11.56-1.97-35.66-7.13-37.38-17.71s21.89-1.72,23.85-13.28c2.44-14.31-28.04-10.82-41.07-4.18-13.03,6.64-22.28,13.26-23.36,21.89-.74,5.9,3.2,15.25,17.21,2.46,14.02-12.79,18.44-6.39,14.76,3.2-3.69,9.59-9.16,15.86-9.16,15.86,0,0,11.07-2.21,17.52,3.69,0,0-2.95-8.73-.49-15.37s11.21,5.64,5.82,16.52c-1.69,3.43,32.3-13.08,32.3-13.08Z"/>
  <path class="st2" d="M56.64,88.93"/>
  <path class="st2" d="M43.41,91.68"/>
</svg> 